<svg width="66" height="66" viewBox="0 0 66 66" fill="none" xmlns="http://www.w3.org/2000/svg">
<path d="M33 0C14.7727 0 0 14.7727 0 33C0 51.2273 14.7727 66 33 66C51.2273 66 66 51.2273 66 33C66 14.7727 51.2273 0 33 0ZM40.2832 27.4055L39.9094 32.3426H34.8434V49.4871H28.4496V32.3426H25.0336V27.4055H28.4496V24.0926C28.4496 22.6359 28.4883 20.3801 29.5453 18.975C30.6668 17.4926 32.2008 16.4871 34.8434 16.4871C39.1488 16.4871 40.9535 17.1059 40.9535 17.1059L40.1027 22.159C40.1027 22.159 38.6848 21.7465 37.357 21.7465C36.0293 21.7465 34.8434 22.2234 34.8434 23.5512V27.4055H40.2832Z" fill="black"/>
</svg>
