<svg width="206" height="48" viewBox="0 0 206 48" fill="none" xmlns="http://www.w3.org/2000/svg">
<path d="M69.0478 10.6752V1.52626C69.0478 1.31594 69.153 1.1582 69.3633 1.1582H78.1968C78.4071 1.1582 78.5648 1.26336 78.5648 1.52626V2.15723C78.5648 2.36755 78.4597 2.52529 78.1968 2.52529H70.4149V5.4172H75.9884C76.1987 5.4172 76.3565 5.52236 76.3565 5.78526V6.41623C76.3565 6.62655 76.2513 6.78429 75.9884 6.78429H70.4149V10.7804C70.4149 10.9907 70.3098 11.1484 70.0469 11.1484H69.3633C69.2056 11.0433 69.0478 10.8855 69.0478 10.6752Z" fill="black"/>
<path d="M69.0478 10.6752V1.52626C69.0478 1.31594 69.153 1.1582 69.3633 1.1582H78.1968C78.4071 1.1582 78.5648 1.26336 78.5648 1.52626V2.15723C78.5648 2.36755 78.4597 2.52529 78.1968 2.52529H70.4149V5.4172H75.9884C76.1987 5.4172 76.3565 5.52236 76.3565 5.78526V6.41623C76.3565 6.62655 76.2513 6.78429 75.9884 6.78429H70.4149V10.7804C70.4149 10.9907 70.3098 11.1484 70.0469 11.1484H69.3633C69.2056 11.0433 69.0478 10.8855 69.0478 10.6752Z" stroke="black" stroke-miterlimit="10"/>
<path d="M81.0361 6.10028C81.0361 8.36123 82.929 9.88606 85.3477 9.88606C87.7138 9.88606 89.6593 8.30865 89.6593 6.10028C89.6593 3.83933 87.7138 2.31451 85.3477 2.31451C82.929 2.31451 81.0361 3.83933 81.0361 6.10028ZM91.0789 6.10028C91.0789 9.09736 88.5025 11.2006 85.3477 11.2006C82.1929 11.2006 79.6165 9.09736 79.6165 6.10028C79.6165 3.10321 82.1403 1 85.3477 1C88.5551 1 91.0789 3.10321 91.0789 6.10028Z" fill="black"/>
<path d="M81.0361 6.10028C81.0361 8.36123 82.929 9.88606 85.3477 9.88606C87.7138 9.88606 89.6593 8.30865 89.6593 6.10028C89.6593 3.83933 87.7138 2.31451 85.3477 2.31451C82.929 2.31451 81.0361 3.83933 81.0361 6.10028ZM91.0789 6.10028C91.0789 9.09736 88.5025 11.2006 85.3477 11.2006C82.1929 11.2006 79.6165 9.09736 79.6165 6.10028C79.6165 3.10321 82.1403 1 85.3477 1C88.5551 1 91.0789 3.10321 91.0789 6.10028Z" stroke="black" stroke-miterlimit="10"/>
<path d="M94.0235 6.36365V1.52626C94.0235 1.31594 94.1286 1.1582 94.339 1.1582H95.0225C95.2328 1.1582 95.3906 1.26336 95.3906 1.52626V6.36365C95.3906 9.20298 96.968 9.88653 98.9134 9.88653C100.859 9.88653 102.436 9.20298 102.436 6.36365V1.52626C102.436 1.31594 102.541 1.1582 102.804 1.1582H103.488C103.698 1.1582 103.803 1.26336 103.803 1.52626V6.36365C103.803 10.1494 101.7 11.201 98.9134 11.201C96.1267 11.201 94.0235 10.1494 94.0235 6.36365Z" fill="black"/>
<path d="M94.0235 6.36365V1.52626C94.0235 1.31594 94.1286 1.1582 94.339 1.1582H95.0225C95.2328 1.1582 95.3906 1.26336 95.3906 1.52626V6.36365C95.3906 9.20298 96.968 9.88652 98.9134 9.88652C100.859 9.88652 102.436 9.20298 102.436 6.36365V1.52626C102.436 1.31594 102.541 1.1582 102.804 1.1582H103.488C103.698 1.1582 103.803 1.26336 103.803 1.52626V6.36365C103.803 10.1494 101.7 11.201 98.9134 11.201C96.1267 11.201 94.0235 10.1494 94.0235 6.36365Z" stroke="black" stroke-miterlimit="10"/>
<path d="M115.108 2.47262V9.72869H119.157C121.838 9.72869 123.048 8.04613 123.048 5.9955C123.048 4.20777 121.786 2.5252 119.157 2.5252H115.108V2.47262ZM113.688 10.6751V1.52617C113.688 1.31585 113.794 1.21069 114.004 1.21069H119.104C122.364 1.21069 124.415 3.15616 124.415 5.94292C124.415 9.67611 121.838 11.0432 119.157 11.0432H114.004C113.846 11.0432 113.688 10.8855 113.688 10.6751Z" fill="black"/>
<path d="M115.108 2.47262V9.72869H119.157C121.838 9.72869 123.048 8.04613 123.048 5.9955C123.048 4.20777 121.786 2.5252 119.157 2.5252H115.108V2.47262ZM113.688 10.6751V1.52617C113.688 1.31585 113.794 1.21069 114.004 1.21069H119.104C122.364 1.21069 124.415 3.15616 124.415 5.94292C124.415 9.67611 121.838 11.0432 119.157 11.0432H114.004C113.846 11.0432 113.688 10.8855 113.688 10.6751Z" stroke="black" stroke-miterlimit="10"/>
<path d="M127.464 10.6752V1.52626C127.464 1.31594 127.57 1.1582 127.78 1.1582H136.613C136.824 1.1582 136.981 1.26336 136.981 1.52626V2.15723C136.981 2.36755 136.876 2.52529 136.613 2.52529H128.832V5.36462H134.405C134.615 5.36462 134.773 5.46978 134.773 5.73268V6.36365C134.773 6.57397 134.668 6.73171 134.405 6.73171H128.832V9.78136H136.613C136.824 9.78136 136.981 9.88652 136.981 10.1494V10.7804C136.981 10.9907 136.876 11.1484 136.613 11.1484H127.78C127.622 11.0433 127.464 10.8855 127.464 10.6752Z" fill="black"/>
<path d="M127.464 10.6752V1.52626C127.464 1.31594 127.57 1.1582 127.78 1.1582H136.613C136.824 1.1582 136.981 1.26336 136.981 1.52626V2.15723C136.981 2.36755 136.876 2.52529 136.613 2.52529H128.832V5.36462H134.405C134.615 5.36462 134.773 5.46978 134.773 5.73268V6.36365C134.773 6.57397 134.668 6.73171 134.405 6.73171H128.832V9.78136H136.613C136.824 9.78136 136.981 9.88652 136.981 10.1494V10.7804C136.981 10.9907 136.876 11.1484 136.613 11.1484H127.78C127.622 11.0433 127.464 10.8855 127.464 10.6752Z" stroke="black" stroke-miterlimit="10"/>
<path d="M49.1725 19.0876L53.3263 22.5579L53.8521 22.1373L49.856 15.8276H49.2251L43.5464 22.0847L43.967 22.5579L49.1725 19.0876Z" fill="black"/>
<path d="M49.1725 19.0876L53.3263 22.5579L53.8521 22.1373L49.856 15.8276H49.2251L43.5464 22.0847L43.967 22.5579L49.1725 19.0876Z" stroke="black" stroke-miterlimit="10"/>
<path d="M83.3496 16.984C83.2445 16.984 83.0867 16.9314 82.9816 16.9314C81.4567 16.9314 80.0371 18.2985 80.0371 19.9811C80.0371 21.2956 80.9309 22.3472 82.298 22.3472C82.4558 22.3472 82.5609 22.3472 82.7187 22.2946C84.0858 22.0843 85.2951 20.7698 85.2951 19.2975C85.2951 18.1933 84.5064 17.1943 83.3496 16.984Z" fill="black"/>
<path d="M83.3496 16.984C83.2445 16.984 83.0867 16.9314 82.9816 16.9314C81.4567 16.9314 80.0371 18.2985 80.0371 19.9811C80.0371 21.2956 80.9309 22.3472 82.298 22.3472C82.4558 22.3472 82.5609 22.3472 82.7187 22.2946C84.0858 22.0843 85.2951 20.7698 85.2951 19.2975C85.2951 18.1933 84.5064 17.1943 83.3496 16.984Z" stroke="black" stroke-miterlimit="10"/>
<path d="M176.206 22.3472C177.731 22.3472 179.203 20.9801 179.203 19.2975C179.203 18.0356 178.257 16.9314 176.942 16.9314C175.418 16.9314 173.998 18.2985 173.998 19.9811C173.945 21.2956 174.839 22.3472 176.206 22.3472Z" fill="black"/>
<path d="M176.206 22.3472C177.731 22.3472 179.203 20.9801 179.203 19.2975C179.203 18.0356 178.257 16.9314 176.942 16.9314C175.418 16.9314 173.998 18.2985 173.998 19.9811C173.945 21.2956 174.839 22.3472 176.206 22.3472Z" stroke="black" stroke-miterlimit="10"/>
<path d="M197.291 26.0807C198.5 26.0807 199.079 27.0797 199.079 28.7623C199.079 31.9697 196.765 34.9668 191.718 35.4926C192.138 31.0758 194.294 26.0807 197.291 26.0807ZM157.12 22.9259C157.593 21.5062 159.013 20.402 159.906 21.1382C160.537 21.7166 159.959 23.0836 159.223 23.8198C158.487 24.6085 157.33 25.2394 157.33 25.2394C156.804 24.9239 156.804 23.8723 157.12 22.9259ZM144.816 26.0807C146.025 26.0807 146.604 27.0797 146.604 28.7623C146.604 31.9697 144.29 34.9668 139.242 35.4926C139.716 31.0758 141.871 26.0807 144.816 26.0807ZM49.8034 31.3387C48.7518 36.5442 46.7538 42.6435 44.2299 42.6435C42.8103 42.6435 42.2319 41.2238 42.2319 38.3845C42.2319 32.9687 44.1248 26.1333 49.3302 26.1333C49.6457 26.1333 50.3818 26.1859 50.6973 26.3436L49.8034 31.3387ZM204.81 36.3339C204.81 36.1235 204.6 35.9132 204.389 35.9132C204.179 35.9132 204.021 36.071 203.969 36.2287C202.602 42.328 199.236 43.9054 196.187 43.9054C193.926 43.9054 191.56 42.1177 191.56 37.3329V36.2813C196.134 35.8081 202.654 33.7574 202.654 29.2881C202.654 26.5539 200.288 25.0817 197.344 25.0817C189.509 25.0817 183.778 27.7633 182.411 34.0203L181.99 36.2287C181.307 39.5413 180.15 42.9064 178.362 43.6951L178.31 43.7477C178.099 43.8528 177.836 43.9054 177.626 43.9054C176.574 43.9054 175.523 43.1167 175.786 41.4867L177.836 32.2852C178.047 31.3387 178.099 30.4975 178.099 29.8139C178.099 28.6571 177.889 27.6581 177.521 26.9746C176.942 25.8704 176.259 25.3446 174.997 25.292C174.787 25.292 173.472 25.2394 172.158 26.8168C170.843 28.3942 170.58 30.8655 169.844 34.2832L169.423 36.439C168.687 40.0671 166.216 43.8003 163.535 43.8003C162.693 43.8003 162.062 43.2219 162.062 41.8548C162.062 38.1216 166.006 32.0749 166.006 28.7623C166.006 26.9746 164.691 25.6601 159.854 25.9756C159.381 26.0281 158.539 25.923 157.856 25.7652C159.644 24.7662 160.853 23.3465 160.853 21.7166C160.853 20.7175 160.222 20.034 159.223 20.034C157.646 20.034 156.016 21.9269 156.016 24.1352C156.016 24.8714 156.121 25.3446 156.331 25.6601C153.071 28.3942 152.387 31.2336 151.809 34.0729L151.388 36.2287C150.021 42.328 146.656 43.9054 143.607 43.9054C141.346 43.9054 138.98 42.1177 138.98 37.3329V36.2813C143.554 35.8081 150.074 33.7574 150.074 29.2881C150.074 26.5539 147.708 25.0817 144.763 25.0817C136.929 25.0817 131.198 27.7633 129.831 34.0203L129.41 36.2287C128.621 40.3825 125.887 43.0116 122.312 43.8003C124.678 42.5383 126.308 40.33 126.308 37.9639C126.308 34.3884 123.784 33.0739 120.366 30.8655C119.42 30.2871 117.895 28.9726 117.947 27.1323C120.629 26.0281 122.417 24.661 122.417 22.663C122.417 21.664 121.838 20.8753 120.629 20.8753C118.421 20.8753 117.159 24.0301 117.001 26.5539C113.005 28.1313 109.587 30.0768 109.061 34.0203L108.641 36.1761C108.115 40.3825 105.381 43.0116 101.858 43.8003C104.224 42.5383 105.854 40.33 105.854 37.9639C105.854 34.3884 103.33 33.0739 99.9124 30.8655C98.966 30.2871 97.4411 28.9726 97.4937 27.1323C100.175 26.0281 101.963 24.661 101.963 22.663C101.963 21.664 101.385 20.8753 100.175 20.8753C97.9669 20.8753 96.705 24.0301 96.5473 26.5539C92.5512 28.1313 89.1335 30.0768 88.6077 34.0203L88.187 36.1761C87.5035 39.4887 86.3467 42.8538 84.559 43.5899L84.5064 43.6425C84.3487 43.6951 84.1383 43.7477 83.928 43.7477C83.8754 43.7477 83.8229 43.7477 83.7703 43.7477C82.7187 43.7477 81.6671 42.959 81.93 41.329L83.9806 32.1274C84.1909 31.181 84.2435 30.3397 84.2435 29.6562C84.2435 28.4994 84.0332 27.5004 83.6651 26.8168C83.0867 25.7652 82.4558 25.2394 81.299 25.1343C81.2464 25.1343 81.1938 25.1343 81.1413 25.1343C80.9309 25.1343 79.6164 25.0817 78.3019 26.6591C77.9339 27.1323 77.6184 27.7107 77.3555 28.3417C76.7771 29.8139 76.5142 31.7068 75.9884 34.1255L75.5678 36.2813C74.9368 39.4361 72.9913 42.6435 70.7304 43.4848C70.2571 43.6951 69.7839 43.8003 69.3633 43.8003C68.8375 43.8003 68.4168 43.5899 68.1539 43.1693C67.7859 42.6961 67.5756 41.9599 67.5756 41.0661C67.5756 40.5403 67.6281 40.0145 67.6807 39.6464L70.9407 19.7185H76.041L76.1461 18.9298H71.0459L72.0449 13.3563H71.3088C71.151 13.9347 70.9933 14.4605 70.783 14.9337C70.783 14.9863 70.7304 14.9863 70.7304 15.0389C70.4675 15.6698 70.0994 16.3534 69.5736 16.9318C69.3107 17.1947 69.0478 17.4576 68.7323 17.6679C66.892 18.9298 66.6291 20.6124 66.6291 20.6124L66.1033 24.0301C64.5259 24.0827 62.633 24.661 61.0556 27.0797C60.0566 28.6571 59.005 32.1274 58.4792 35.7029C58.0585 38.5422 57.3224 40.3825 56.5863 41.5919C56.0605 42.5909 55.3769 43.327 54.6408 43.5899C54.4305 43.6951 54.2202 43.6951 53.9573 43.6951C53.116 43.6951 52.7479 43.1693 52.7479 42.0125C52.7479 41.6445 52.8005 41.1712 52.8531 40.6454L55.1666 25.292H52.6954C51.486 25.0291 50.0663 24.8714 48.9622 24.8714C48.5415 24.8714 48.1735 24.8714 47.7528 24.8714C41.2854 25.0291 39.2874 27.2901 36.9213 30.0242C35.7645 31.5491 35.0284 32.4955 33.451 33.4419C29.8755 35.4926 26.3001 34.9668 23.6711 34.1781C28.6662 33.9677 34.8181 30.3397 35.449 22.7156C36.1852 14.0924 26.4052 10.3066 19.4121 10.3066C10.526 10.3066 3.48025 13.7769 3.48025 20.7701C3.48025 24.6085 5.68862 26.7643 7.89699 26.7643C9.15891 26.7643 10.0528 26.291 10.0528 25.0817C10.0528 23.8723 8.84343 23.4517 7.63409 23.4517C6.05668 23.4517 4.47927 23.0311 4.47927 20.4546C4.47927 14.2502 11.1044 11.1479 19.2017 11.1479C20.3059 11.1479 21.2524 11.2531 22.1462 11.4634C18.0976 12.7253 15.6263 14.9337 14.785 19.6659L11.9457 38.2793C11.0518 43.2219 9.89504 46.0612 7.16086 46.0612C5.11023 46.0612 4.84733 42.959 2.7967 42.959C2.008 42.959 1.11414 43.4322 1.11414 44.4838C1.11414 46.3767 4.26895 46.9025 6.95054 46.9025C13.3128 46.9025 16.2572 42.3806 17.1511 36.1761L19.5172 18.404C19.8327 16.4585 20.3585 13.9873 22.0411 12.3047C22.2514 12.0944 22.5143 11.884 22.7772 11.7263C22.7772 11.7263 22.9875 11.6211 23.0401 11.5686C26.0898 12.0944 31.2952 14.3027 30.822 22.4001C30.4013 29.2881 26.1423 33.2316 21.9885 33.2316C21.6204 33.2316 21.2524 33.2316 20.8843 33.1265C20.7791 33.1265 20.674 33.0739 20.5688 33.0739H20.5162C20.3059 33.0739 20.1482 33.2316 20.1482 33.4419C20.1482 33.5471 20.2008 33.7048 20.3059 33.7574C20.3059 33.7574 20.3585 33.81 20.4637 33.8626C20.8317 34.0729 24.0917 35.6503 28.0352 35.6503C29.9807 35.6503 31.7684 35.2823 33.819 34.1255C35.5542 33.1265 36.3955 32.0749 37.5522 30.7078C39.1822 28.8149 40.4967 27.4478 43.6516 26.4488C39.9184 28.6046 37.4997 32.9687 37.4997 38.069C37.4997 42.2228 39.0771 44.957 42.1267 44.957C45.5444 44.957 47.5425 41.6445 48.6467 38.069H48.8044C48.7518 38.8051 48.5941 39.3309 48.5941 39.8567C48.2786 43.5899 50.0138 44.957 52.5902 44.957C53.3263 44.957 54.0099 44.8519 54.5882 44.589C54.746 44.5364 54.9563 44.4312 55.114 44.3786C55.2718 44.2735 55.4295 44.2209 55.5347 44.1157C55.5873 44.0632 55.6399 44.0106 55.745 43.958C55.7976 43.9054 55.9028 43.8528 55.9553 43.8003C56.0605 43.6951 56.1656 43.5899 56.3234 43.4848C56.376 43.4322 56.4286 43.3796 56.4286 43.3796C56.4811 43.327 56.5337 43.2219 56.5863 43.1693C57.6379 41.9599 58.7947 39.7516 59.3205 35.9132C60.7401 25.6075 64.1578 25.0291 65.9456 24.9765L63.4217 38.5948C63.3166 39.068 63.264 39.5938 63.264 40.0145C63.264 42.5909 64.4733 44.5364 67.2601 44.957C67.4178 44.957 67.523 45.0096 67.6807 45.0096H67.7333C67.9436 45.0096 68.1539 45.0096 68.3117 45.0096C69.1004 45.0096 69.7839 44.9044 70.4675 44.6941C73.5697 43.7477 75.5678 40.698 76.409 36.5968L76.7771 34.3884C77.3029 31.812 77.671 29.8665 78.2494 28.4994C78.5648 27.7107 78.9855 27.1849 79.5113 26.8168C79.5113 26.8168 79.7742 26.6591 80.0371 26.7117C80.0897 26.7117 80.1422 26.7117 80.1948 26.7643C80.668 26.9746 80.5629 28.0262 80.5629 28.0262C80.5629 28.0262 80.5629 28.7097 80.2474 30.2871C80.1948 30.6552 80.0897 31.0233 79.9845 31.3913C79.9319 31.5491 79.8793 31.7068 79.8268 31.8645C78.9855 34.8616 77.5658 38.3319 77.5658 40.7506C77.5658 43.5374 79.7742 44.9044 82.3506 44.9044C82.4558 44.9044 82.6135 44.9044 82.7187 44.9044C82.8764 44.9044 82.9816 44.9044 83.1393 44.8519C83.2971 44.8519 83.4548 44.7993 83.6125 44.7467C83.6651 44.7467 83.7177 44.7467 83.7703 44.6941C83.928 44.6415 84.0858 44.589 84.2435 44.5364C84.2961 44.5364 84.3487 44.4838 84.4012 44.4838C84.5064 44.4312 84.6116 44.3786 84.7693 44.3261C84.8219 44.2735 84.8745 44.2735 84.927 44.2209C85.0848 44.1683 85.1899 44.0632 85.3477 43.958C85.4003 43.9054 85.4528 43.8528 85.5054 43.8528C85.6106 43.8003 85.7157 43.6951 85.7683 43.5899C85.8735 43.4848 86.0312 43.327 86.1364 43.2219C86.189 43.1693 86.189 43.1693 86.2415 43.1167C86.3467 42.959 86.4519 42.8538 86.557 42.6961C86.6622 42.5383 86.7674 42.3806 86.8725 42.2228C86.8725 42.1703 86.9251 42.1177 86.9251 42.1177C87.0303 41.9599 87.1354 41.8022 87.188 41.5919C87.9241 40.1722 88.3973 38.3845 88.8706 36.3339L89.2386 34.1781C89.7644 30.3923 92.8141 28.8675 96.3895 27.3426C96.4421 30.8129 98.0721 32.2852 99.2814 34.0729C100.333 35.7029 100.911 37.1751 100.911 39.068C100.911 41.9074 99.0711 43.958 96.4947 43.958C94.9173 43.958 93.2873 43.6425 92.1831 42.1703C92.3934 42.2228 92.6038 42.2228 92.8141 42.2228C94.3389 42.2228 95.7586 40.9609 95.7586 39.2258C95.7586 37.9639 94.7595 36.8597 93.4976 36.8597C91.9202 36.8597 90.5531 38.2267 90.5531 39.9093C90.5531 43.1693 93.7079 44.8519 96.9153 44.8519C104.434 44.8519 108.43 41.8548 109.587 36.2813L109.955 34.1255C110.481 30.3397 113.531 28.8149 117.106 27.2901C117.159 30.7604 118.789 32.2326 119.998 34.0203C121.05 35.6503 121.628 37.1226 121.628 39.0155C121.628 41.8548 119.788 43.9054 117.211 43.9054C115.634 43.9054 114.004 43.5899 112.9 42.1177C113.11 42.1703 113.32 42.1703 113.531 42.1703C115.056 42.1703 116.475 40.9083 116.475 39.1732C116.475 37.9113 115.476 36.8071 114.214 36.8071C112.637 36.8071 111.27 38.1742 111.27 39.8567C111.27 43.1167 114.425 44.7993 117.632 44.7993C125.151 44.7993 129.147 41.8022 130.304 36.2287L130.672 33.9678C131.671 29.0778 135.72 26.6065 140.504 25.923C136.613 28.0262 134.195 32.7584 134.195 36.8597C134.195 41.7496 137.139 44.7467 142.187 44.7467C147.445 44.7467 150.81 42.328 152.23 36.1761L152.598 33.9678C153.281 30.8655 153.912 28.7097 156.909 25.923C157.488 26.291 158.487 26.5014 159.433 26.4488C163.587 26.1859 164.744 27.0797 164.691 28.2365C164.586 31.3387 157.172 35.2297 157.172 40.5929C157.172 43.327 159.276 44.7993 162.062 44.7993C166.426 44.7993 169.161 41.3816 170.212 36.3864L170.58 34.1781C171.474 30.1294 171.79 27.553 173.314 26.6065C173.314 26.6065 173.682 26.3962 173.998 26.5539C174.471 26.7643 174.366 27.8159 174.366 27.8159C174.366 27.8159 174.366 28.4994 174.051 30.0768C173.998 30.4449 173.893 30.8129 173.788 31.181C173.735 31.3387 173.682 31.4965 173.63 31.6542C172.789 34.6513 171.369 38.1216 171.369 40.5403C171.369 43.327 173.577 44.6941 176.154 44.6941C176.417 44.6941 176.68 44.6941 176.942 44.6415C177.1 44.6415 177.258 44.589 177.416 44.5364C177.468 44.5364 177.521 44.5364 177.573 44.4838C177.731 44.4312 177.889 44.3786 178.047 44.3261C178.099 44.3261 178.152 44.2735 178.204 44.2735C178.31 44.2209 178.415 44.1683 178.572 44.1157C178.625 44.0632 178.678 44.0632 178.73 44.0106C178.888 43.958 178.993 43.8528 179.151 43.7477C179.203 43.6951 179.256 43.6425 179.309 43.6425C179.414 43.5899 179.519 43.4848 179.571 43.3796C181.149 41.9599 182.043 39.3835 182.726 36.071L183.094 33.81C184.093 28.92 188.142 26.4488 192.927 25.7652C189.036 27.8684 186.617 32.6007 186.617 36.7019C186.617 41.5919 189.562 44.589 194.609 44.589C199.867 44.589 203.233 42.1703 204.652 36.0184C204.81 36.439 204.81 36.3864 204.81 36.3339Z" fill="black"/>
<path d="M197.291 26.0807C198.5 26.0807 199.079 27.0797 199.079 28.7623C199.079 31.9697 196.765 34.9668 191.718 35.4926C192.138 31.0758 194.294 26.0807 197.291 26.0807ZM157.12 22.9259C157.593 21.5062 159.013 20.402 159.906 21.1382C160.537 21.7166 159.959 23.0836 159.223 23.8198C158.487 24.6085 157.33 25.2394 157.33 25.2394C156.804 24.9239 156.804 23.8723 157.12 22.9259ZM144.816 26.0807C146.025 26.0807 146.604 27.0797 146.604 28.7623C146.604 31.9697 144.29 34.9668 139.242 35.4926C139.716 31.0758 141.871 26.0807 144.816 26.0807ZM49.8034 31.3387C48.7518 36.5442 46.7538 42.6435 44.2299 42.6435C42.8103 42.6435 42.2319 41.2238 42.2319 38.3845C42.2319 32.9687 44.1248 26.1333 49.3302 26.1333C49.6457 26.1333 50.3818 26.1859 50.6973 26.3436L49.8034 31.3387ZM204.81 36.3339C204.81 36.1235 204.6 35.9132 204.389 35.9132C204.179 35.9132 204.021 36.071 203.969 36.2287C202.602 42.328 199.236 43.9054 196.187 43.9054C193.926 43.9054 191.56 42.1177 191.56 37.3329V36.2813C196.134 35.8081 202.654 33.7574 202.654 29.2881C202.654 26.5539 200.288 25.0817 197.344 25.0817C189.509 25.0817 183.778 27.7633 182.411 34.0203L181.99 36.2287C181.307 39.5413 180.15 42.9064 178.362 43.6951L178.31 43.7477C178.099 43.8528 177.836 43.9054 177.626 43.9054C176.574 43.9054 175.523 43.1167 175.786 41.4867L177.836 32.2852C178.047 31.3387 178.099 30.4975 178.099 29.8139C178.099 28.6571 177.889 27.6581 177.521 26.9746C176.942 25.8704 176.259 25.3446 174.997 25.292C174.787 25.292 173.472 25.2394 172.158 26.8168C170.843 28.3942 170.58 30.8655 169.844 34.2832L169.423 36.439C168.687 40.0671 166.216 43.8003 163.535 43.8003C162.693 43.8003 162.062 43.2219 162.062 41.8548C162.062 38.1216 166.006 32.0749 166.006 28.7623C166.006 26.9746 164.691 25.6601 159.854 25.9756C159.381 26.0281 158.539 25.923 157.856 25.7652C159.644 24.7662 160.853 23.3465 160.853 21.7166C160.853 20.7175 160.222 20.034 159.223 20.034C157.646 20.034 156.016 21.9269 156.016 24.1352C156.016 24.8714 156.121 25.3446 156.331 25.6601C153.071 28.3942 152.387 31.2336 151.809 34.0729L151.388 36.2287C150.021 42.328 146.656 43.9054 143.607 43.9054C141.346 43.9054 138.98 42.1177 138.98 37.3329V36.2813C143.554 35.8081 150.074 33.7574 150.074 29.2881C150.074 26.5539 147.708 25.0817 144.763 25.0817C136.929 25.0817 131.198 27.7633 129.831 34.0203L129.41 36.2287C128.621 40.3825 125.887 43.0116 122.312 43.8003C124.678 42.5383 126.308 40.33 126.308 37.9638C126.308 34.3884 123.784 33.0739 120.366 30.8655C119.42 30.2871 117.895 28.9726 117.947 27.1323C120.629 26.0281 122.417 24.661 122.417 22.663C122.417 21.664 121.838 20.8753 120.629 20.8753C118.421 20.8753 117.159 24.0301 117.001 26.5539C113.005 28.1313 109.587 30.0768 109.061 34.0203L108.641 36.1761C108.115 40.3825 105.381 43.0116 101.858 43.8003C104.224 42.5383 105.854 40.33 105.854 37.9638C105.854 34.3884 103.33 33.0739 99.9124 30.8655C98.966 30.2871 97.4411 28.9726 97.4937 27.1323C100.175 26.0281 101.963 24.661 101.963 22.663C101.963 21.664 101.385 20.8753 100.175 20.8753C97.9669 20.8753 96.705 24.0301 96.5473 26.5539C92.5512 28.1313 89.1335 30.0768 88.6077 34.0203L88.187 36.1761C87.5035 39.4887 86.3467 42.8538 84.559 43.5899L84.5064 43.6425C84.3487 43.6951 84.1383 43.7477 83.928 43.7477C83.8754 43.7477 83.8229 43.7477 83.7703 43.7477C82.7187 43.7477 81.6671 42.959 81.93 41.329L83.9806 32.1274C84.1909 31.181 84.2435 30.3397 84.2435 29.6562C84.2435 28.4994 84.0332 27.5004 83.6651 26.8168C83.0867 25.7652 82.4558 25.2394 81.299 25.1343C81.2464 25.1343 81.1938 25.1343 81.1413 25.1343C80.9309 25.1343 79.6164 25.0817 78.3019 26.6591C77.9339 27.1323 77.6184 27.7107 77.3555 28.3417C76.7771 29.8139 76.5142 31.7068 75.9884 34.1255L75.5678 36.2813C74.9368 39.4361 72.9913 42.6435 70.7304 43.4848C70.2572 43.6951 69.7839 43.8003 69.3633 43.8003C68.8375 43.8003 68.4168 43.5899 68.1539 43.1693C67.7859 42.6961 67.5756 41.9599 67.5756 41.0661C67.5756 40.5403 67.6281 40.0145 67.6807 39.6464L70.9407 19.7185H76.041L76.1461 18.9298H71.0459L72.0449 13.3563H71.3088C71.151 13.9347 70.9933 14.4605 70.783 14.9337C70.783 14.9863 70.7304 14.9863 70.7304 15.0389C70.4675 15.6698 70.0994 16.3534 69.5736 16.9318C69.3107 17.1947 69.0478 17.4576 68.7323 17.6679C66.892 18.9298 66.6291 20.6124 66.6291 20.6124L66.1033 24.0301C64.5259 24.0827 62.633 24.661 61.0556 27.0797C60.0566 28.6571 59.005 32.1274 58.4792 35.7029C58.0585 38.5422 57.3224 40.3825 56.5863 41.5919C56.0605 42.5909 55.3769 43.327 54.6408 43.5899C54.4305 43.6951 54.2202 43.6951 53.9573 43.6951C53.116 43.6951 52.7479 43.1693 52.7479 42.0125C52.7479 41.6445 52.8005 41.1712 52.8531 40.6454L55.1666 25.292H52.6954C51.486 25.0291 50.0663 24.8714 48.9622 24.8714C48.5415 24.8714 48.1735 24.8714 47.7528 24.8714C41.2854 25.0291 39.2874 27.2901 36.9213 30.0242C35.7645 31.5491 35.0284 32.4955 33.451 33.4419C29.8755 35.4926 26.3001 34.9668 23.6711 34.1781C28.6662 33.9677 34.8181 30.3397 35.449 22.7156C36.1852 14.0924 26.4052 10.3066 19.4121 10.3066C10.526 10.3066 3.48025 13.7769 3.48025 20.7701C3.48025 24.6085 5.68862 26.7643 7.89699 26.7643C9.15891 26.7643 10.0528 26.291 10.0528 25.0817C10.0528 23.8723 8.84343 23.4517 7.63409 23.4517C6.05668 23.4517 4.47927 23.0311 4.47927 20.4546C4.47927 14.2502 11.1044 11.1479 19.2017 11.1479C20.3059 11.1479 21.2524 11.2531 22.1462 11.4634C18.0976 12.7253 15.6263 14.9337 14.785 19.6659L11.9457 38.2793C11.0518 43.2219 9.89504 46.0612 7.16086 46.0612C5.11023 46.0612 4.84733 42.959 2.7967 42.959C2.008 42.959 1.11414 43.4322 1.11414 44.4838C1.11414 46.3767 4.26895 46.9025 6.95054 46.9025C13.3128 46.9025 16.2572 42.3806 17.1511 36.1761L19.5172 18.404C19.8327 16.4585 20.3585 13.9873 22.0411 12.3047C22.2514 12.0944 22.5143 11.884 22.7772 11.7263C22.7772 11.7263 22.9875 11.6211 23.0401 11.5686C26.0898 12.0944 31.2952 14.3027 30.822 22.4001C30.4013 29.2881 26.1423 33.2316 21.9885 33.2316C21.6204 33.2316 21.2524 33.2316 20.8843 33.1265C20.7791 33.1265 20.674 33.0739 20.5688 33.0739H20.5162C20.3059 33.0739 20.1482 33.2316 20.1482 33.4419C20.1482 33.5471 20.2008 33.7049 20.3059 33.7574C20.3059 33.7574 20.3585 33.81 20.4637 33.8626C20.8317 34.0729 24.0917 35.6503 28.0352 35.6503C29.9807 35.6503 31.7684 35.2823 33.819 34.1255C35.5542 33.1265 36.3955 32.0749 37.5522 30.7078C39.1822 28.8149 40.4967 27.4478 43.6516 26.4488C39.9184 28.6046 37.4997 32.9687 37.4997 38.069C37.4997 42.2228 39.0771 44.957 42.1267 44.957C45.5444 44.957 47.5425 41.6445 48.6467 38.069H48.8044C48.7518 38.8051 48.5941 39.3309 48.5941 39.8567C48.2786 43.5899 50.0138 44.957 52.5902 44.957C53.3263 44.957 54.0099 44.8519 54.5882 44.589C54.746 44.5364 54.9563 44.4312 55.114 44.3786C55.2718 44.2735 55.4295 44.2209 55.5347 44.1157C55.5873 44.0632 55.6398 44.0106 55.745 43.958C55.7976 43.9054 55.9028 43.8528 55.9553 43.8003C56.0605 43.6951 56.1657 43.5899 56.3234 43.4848C56.376 43.4322 56.4286 43.3796 56.4286 43.3796C56.4811 43.327 56.5337 43.2219 56.5863 43.1693C57.6379 41.9599 58.7947 39.7516 59.3205 35.9132C60.7401 25.6075 64.1578 25.0291 65.9456 24.9765L63.4217 38.5948C63.3166 39.068 63.264 39.5938 63.264 40.0145C63.264 42.5909 64.4733 44.5364 67.2601 44.957C67.4178 44.957 67.523 45.0096 67.6807 45.0096H67.7333C67.9436 45.0096 68.1539 45.0096 68.3117 45.0096C69.1004 45.0096 69.7839 44.9044 70.4675 44.6941C73.5697 43.7477 75.5678 40.698 76.409 36.5968L76.7771 34.3884C77.3029 31.812 77.671 29.8665 78.2494 28.4994C78.5648 27.7107 78.9855 27.1849 79.5113 26.8168C79.5113 26.8168 79.7742 26.6591 80.0371 26.7117C80.0897 26.7117 80.1422 26.7117 80.1948 26.7643C80.668 26.9746 80.5629 28.0262 80.5629 28.0262C80.5629 28.0262 80.5629 28.7097 80.2474 30.2871C80.1948 30.6552 80.0897 31.0233 79.9845 31.3913C79.9319 31.5491 79.8793 31.7068 79.8268 31.8645C78.9855 34.8616 77.5658 38.3319 77.5658 40.7506C77.5658 43.5374 79.7742 44.9044 82.3506 44.9044C82.4558 44.9044 82.6135 44.9044 82.7187 44.9044C82.8764 44.9044 82.9816 44.9044 83.1393 44.8519C83.2971 44.8519 83.4548 44.7993 83.6125 44.7467C83.6651 44.7467 83.7177 44.7467 83.7703 44.6941C83.928 44.6415 84.0858 44.589 84.2435 44.5364C84.2961 44.5364 84.3487 44.4838 84.4012 44.4838C84.5064 44.4312 84.6116 44.3786 84.7693 44.3261C84.8219 44.2735 84.8745 44.2735 84.927 44.2209C85.0848 44.1683 85.1899 44.0632 85.3477 43.958C85.4003 43.9054 85.4528 43.8528 85.5054 43.8528C85.6106 43.8003 85.7157 43.6951 85.7683 43.5899C85.8735 43.4848 86.0312 43.327 86.1364 43.2219C86.189 43.1693 86.189 43.1693 86.2415 43.1167C86.3467 42.959 86.4519 42.8538 86.557 42.6961C86.6622 42.5383 86.7674 42.3806 86.8725 42.2228C86.8725 42.1703 86.9251 42.1177 86.9251 42.1177C87.0303 41.9599 87.1354 41.8022 87.188 41.5919C87.9241 40.1722 88.3973 38.3845 88.8706 36.3339L89.2386 34.1781C89.7644 30.3923 92.8141 28.8675 96.3895 27.3426C96.4421 30.8129 98.0721 32.2852 99.2814 34.0729C100.333 35.7029 100.911 37.1751 100.911 39.068C100.911 41.9074 99.0711 43.958 96.4947 43.958C94.9173 43.958 93.2873 43.6425 92.1831 42.1703C92.3934 42.2228 92.6038 42.2228 92.8141 42.2228C94.3389 42.2228 95.7586 40.9609 95.7586 39.2258C95.7586 37.9639 94.7595 36.8597 93.4976 36.8597C91.9202 36.8597 90.5531 38.2267 90.5531 39.9093C90.5531 43.1693 93.7079 44.8519 96.9153 44.8519C104.434 44.8519 108.43 41.8548 109.587 36.2813L109.955 34.1255C110.481 30.3397 113.531 28.8149 117.106 27.2901C117.159 30.7604 118.789 32.2326 119.998 34.0203C121.05 35.6503 121.628 37.1226 121.628 39.0155C121.628 41.8548 119.788 43.9054 117.211 43.9054C115.634 43.9054 114.004 43.5899 112.9 42.1177C113.11 42.1703 113.32 42.1703 113.531 42.1703C115.056 42.1703 116.475 40.9083 116.475 39.1732C116.475 37.9113 115.476 36.8071 114.214 36.8071C112.637 36.8071 111.27 38.1742 111.27 39.8567C111.27 43.1167 114.425 44.7993 117.632 44.7993C125.151 44.7993 129.147 41.8022 130.304 36.2287L130.672 33.9678C131.671 29.0778 135.72 26.6065 140.504 25.923C136.613 28.0262 134.195 32.7584 134.195 36.8597C134.195 41.7496 137.139 44.7467 142.187 44.7467C147.445 44.7467 150.81 42.328 152.23 36.1761L152.598 33.9678C153.281 30.8655 153.912 28.7097 156.909 25.923C157.488 26.291 158.487 26.5014 159.433 26.4488C163.587 26.1859 164.744 27.0797 164.691 28.2365C164.586 31.3387 157.172 35.2297 157.172 40.5929C157.172 43.327 159.276 44.7993 162.062 44.7993C166.426 44.7993 169.161 41.3816 170.212 36.3864L170.58 34.1781C171.474 30.1294 171.79 27.553 173.314 26.6065C173.314 26.6065 173.682 26.3962 173.998 26.5539C174.471 26.7643 174.366 27.8159 174.366 27.8159C174.366 27.8159 174.366 28.4994 174.051 30.0768C173.998 30.4449 173.893 30.8129 173.788 31.181C173.735 31.3387 173.682 31.4965 173.63 31.6542C172.789 34.6513 171.369 38.1216 171.369 40.5403C171.369 43.327 173.577 44.6941 176.154 44.6941C176.417 44.6941 176.68 44.6941 176.942 44.6415C177.1 44.6415 177.258 44.589 177.416 44.5364C177.468 44.5364 177.521 44.5364 177.573 44.4838C177.731 44.4312 177.889 44.3786 178.047 44.3261C178.099 44.3261 178.152 44.2735 178.204 44.2735C178.31 44.2209 178.415 44.1683 178.572 44.1157C178.625 44.0632 178.678 44.0632 178.73 44.0106C178.888 43.958 178.993 43.8528 179.151 43.7477C179.203 43.6951 179.256 43.6425 179.309 43.6425C179.414 43.5899 179.519 43.4848 179.571 43.3796C181.149 41.9599 182.043 39.3835 182.726 36.071L183.094 33.81C184.093 28.92 188.142 26.4488 192.927 25.7652C189.036 27.8684 186.617 32.6007 186.617 36.7019C186.617 41.5919 189.562 44.589 194.609 44.589C199.867 44.589 203.233 42.1703 204.652 36.0184C204.81 36.439 204.81 36.3864 204.81 36.3339Z" stroke="black" stroke-miterlimit="10"/>
</svg>
