<svg width="269" height="51" viewBox="0 0 269 51" fill="none" xmlns="http://www.w3.org/2000/svg">
<path d="M38.1855 2.03809C37.2012 2.77637 36.2783 3.6582 35.417 4.68359C36.251 5.20312 36.9551 5.77734 37.5293 6.40625C38.1035 7.02148 38.5615 7.65039 38.9033 8.29297C39.2588 8.93555 39.5117 9.57129 39.6621 10.2002C39.8125 10.8291 39.8877 11.4102 39.8877 11.9434C39.8877 13.2832 39.6348 14.4521 39.1289 15.4502C38.623 16.4346 37.9531 17.2549 37.1191 17.9111C36.2988 18.5674 35.3486 19.0596 34.2686 19.3877C33.2021 19.7021 32.0947 19.8594 30.9463 19.8594C29.6611 19.8594 28.3965 19.7158 27.1523 19.4287C26.5781 20.6455 25.9561 21.8555 25.2861 23.0586C24.6162 24.2617 23.8848 25.417 23.0918 26.5244C22.3125 27.6182 21.458 28.6436 20.5283 29.6006C19.6123 30.5439 18.6211 31.3574 17.5547 32.041C16.502 32.7383 15.3604 33.2852 14.1299 33.6816C12.8994 34.0781 11.5869 34.2764 10.1924 34.2764C8.83887 34.2764 7.58789 34.0576 6.43945 33.6201C5.29102 33.1826 4.2998 32.5469 3.46582 31.7129C2.63184 30.8652 1.98242 29.8398 1.51758 28.6367C1.05273 27.4199 0.820312 26.0322 0.820312 24.4736C0.820312 22.4502 1.16211 20.502 1.8457 18.6289C2.54297 16.7559 3.49316 15.0059 4.69629 13.3789C5.91309 11.752 7.3418 10.2754 8.98242 8.94922C10.623 7.62305 12.3936 6.48828 14.2939 5.54492C16.1943 4.60156 18.1836 3.87012 20.2617 3.35059C22.3398 2.83105 24.418 2.57129 26.4961 2.57129C28.123 2.57129 29.5654 2.70801 30.8232 2.98145C32.0947 3.24121 33.2158 3.58984 34.1865 4.02734C34.7334 3.54883 35.3076 3.10449 35.9092 2.69434C36.5107 2.27051 37.1602 1.89453 37.8574 1.56641L38.1855 2.03809ZM25.4297 17.7266C26.0586 16.4141 26.6807 15.1562 27.2959 13.9531C27.9111 12.7363 28.5332 11.5879 29.1621 10.5078C29.8047 9.41406 30.4678 8.39551 31.1514 7.45215C31.835 6.49512 32.5732 5.61328 33.3662 4.80664C32.4639 4.45117 31.4795 4.19141 30.4131 4.02734C29.3604 3.86328 28.2324 3.78125 27.0293 3.78125C25.375 3.78125 23.7549 3.97949 22.1689 4.37598C20.583 4.77246 19.0518 5.31934 17.5752 6.0166C16.1123 6.7002 14.7109 7.51367 13.3711 8.45703C12.0449 9.40039 10.8076 10.4258 9.65918 11.5332C8.52441 12.6406 7.49219 13.8027 6.5625 15.0195C5.64648 16.2227 4.86035 17.4395 4.2041 18.6699C3.56152 19.9004 3.0625 21.1172 2.70703 22.3203C2.36523 23.5098 2.19434 24.6445 2.19434 25.7246C2.19434 26.7773 2.38574 27.7617 2.76855 28.6777C3.15137 29.5801 3.67773 30.3662 4.34766 31.0361C5.03125 31.7061 5.83789 32.2324 6.76758 32.6152C7.71094 32.998 8.74316 33.1895 9.86426 33.1895C11.6006 33.1895 13.1592 32.8477 14.54 32.1641C15.9209 31.4805 17.1992 30.5098 18.375 29.252C19.5508 27.9805 20.665 26.4561 21.7178 24.6787C22.7705 22.9014 23.8438 20.9189 24.9375 18.7314C23.5156 18.1709 22.1963 17.4531 20.9795 16.5781L21.3076 16.0039C21.9639 16.332 22.627 16.6465 23.2969 16.9473C23.9805 17.2344 24.6914 17.4941 25.4297 17.7266ZM37.7344 10.7744C37.7344 9.55762 37.4678 8.51855 36.9346 7.65723C36.415 6.7959 35.6836 6.07812 34.7402 5.50391C33.4961 7.11719 32.3066 8.99707 31.1719 11.1436C30.0508 13.2764 28.8887 15.6553 27.6855 18.2803C28.082 18.3486 28.4785 18.4033 28.875 18.4443C29.2715 18.4717 29.6748 18.4854 30.085 18.4854C31.124 18.4854 32.1016 18.3008 33.0176 17.9316C33.9473 17.5625 34.7607 17.043 35.458 16.373C36.1553 15.6895 36.709 14.876 37.1191 13.9326C37.5293 12.9893 37.7344 11.9365 37.7344 10.7744ZM40.2363 23.9814C40.9609 22.9971 41.7129 22.0947 42.4922 21.2744C43.2715 20.4404 44.0576 19.7227 44.8506 19.1211C45.6436 18.5195 46.4229 18.0547 47.1885 17.7266C47.9678 17.3848 48.7197 17.2139 49.4443 17.2139C49.9365 17.2139 50.3398 17.2891 50.6543 17.4395C50.9824 17.5898 51.2354 17.7881 51.4131 18.0342C51.6045 18.2666 51.7344 18.5264 51.8027 18.8135C51.8848 19.1006 51.9258 19.3877 51.9258 19.6748C51.9258 20.167 51.8232 20.7002 51.6182 21.2744C51.4131 21.835 51.1533 22.4229 50.8389 23.0381C50.5381 23.6533 50.21 24.2822 49.8545 24.9248C49.499 25.5674 49.1641 26.1963 48.8496 26.8115C48.5488 27.4268 48.2959 28.0283 48.0908 28.6162C47.8857 29.1904 47.7832 29.7305 47.7832 30.2363C47.7832 30.5508 47.8516 30.8447 47.9883 31.1182C48.1387 31.3779 48.3984 31.5078 48.7676 31.5078C49.2051 31.5078 49.6904 31.2891 50.2236 30.8516C50.7568 30.4004 51.2969 29.833 51.8438 29.1494C52.4043 28.4521 52.958 27.6797 53.5049 26.832C54.0654 25.9844 54.585 25.1572 55.0635 24.3506L55.8018 24.9248C55.6514 25.1299 55.4463 25.4648 55.1865 25.9297C54.9268 26.3809 54.6191 26.8936 54.2637 27.4678C53.9219 28.0283 53.5322 28.6094 53.0947 29.2109C52.6709 29.8125 52.2129 30.3662 51.7207 30.8721C51.2422 31.3643 50.7363 31.7676 50.2031 32.082C49.6699 32.4102 49.1299 32.5742 48.583 32.5742C48.2275 32.5742 47.8721 32.5332 47.5166 32.4512C47.1611 32.3691 46.8398 32.2188 46.5527 32C46.2656 31.7812 46.0332 31.4873 45.8555 31.1182C45.6777 30.7354 45.5889 30.2568 45.5889 29.6826C45.5889 29.0127 45.6982 28.3359 45.917 27.6523C46.1494 26.9551 46.4297 26.2715 46.7578 25.6016C47.0996 24.918 47.4688 24.2617 47.8652 23.6328C48.2617 22.9902 48.624 22.3887 48.9521 21.8281C49.2939 21.2676 49.5742 20.7617 49.793 20.3105C50.0254 19.8457 50.1416 19.4561 50.1416 19.1416C50.1416 18.5811 49.8682 18.3008 49.3213 18.3008C48.542 18.3008 47.7148 18.5605 46.8398 19.0801C45.9785 19.5859 45.1104 20.249 44.2354 21.0693C43.3604 21.8896 42.499 22.8125 41.6514 23.8379C40.8037 24.8496 40.0107 25.8613 39.2725 26.873L36.1553 32.7383L34.2891 32C36.0254 28.2129 37.6934 24.4736 39.293 20.7822C40.9062 17.0771 42.5605 13.4199 44.2559 9.81055C44.5156 9.25 44.8164 8.6416 45.1582 7.98535C45.5137 7.3291 45.8896 6.67285 46.2861 6.0166C46.6963 5.36035 47.1338 4.73145 47.5986 4.12988C48.0635 3.52832 48.542 2.99512 49.0342 2.53027C49.5264 2.06543 50.0322 1.69629 50.5518 1.42285C51.085 1.13574 51.6182 0.992188 52.1514 0.992188C52.7529 0.992188 53.2178 1.16309 53.5459 1.50488C53.8877 1.83301 54.0586 2.30469 54.0586 2.91992C54.0586 3.5625 53.8877 4.29395 53.5459 5.11426C53.2041 5.9209 52.7461 6.77539 52.1719 7.67773C51.5977 8.58008 50.9277 9.50977 50.1621 10.4668C49.4102 11.4238 48.6104 12.374 47.7627 13.3174C46.9287 14.2607 46.0811 15.1768 45.2197 16.0654C44.3584 16.9404 43.5312 17.7539 42.7383 18.5059L40.2363 23.9814ZM52.2539 2.0791C51.6387 2.0791 51.0713 2.31836 50.5518 2.79688C50.0459 3.26172 49.4922 4.03418 48.8906 5.11426C48.2891 6.19434 47.5986 7.60254 46.8193 9.33887C46.04 11.0752 45.0898 13.208 43.9688 15.7373C45.4727 14.2744 46.7852 12.8594 47.9062 11.4922C49.041 10.1113 49.9844 8.85352 50.7363 7.71875C51.4883 6.58398 52.0488 5.59961 52.418 4.76562C52.8008 3.91797 52.9922 3.28906 52.9922 2.87891C52.9922 2.63281 52.9238 2.44141 52.7871 2.30469C52.6504 2.1543 52.4727 2.0791 52.2539 2.0791ZM64.292 13.8096C64.292 14.083 64.2236 14.3701 64.0869 14.6709C63.9502 14.958 63.7725 15.2178 63.5537 15.4502C63.3486 15.6826 63.1162 15.874 62.8564 16.0244C62.5967 16.1748 62.3369 16.25 62.0771 16.25C61.8447 16.25 61.667 16.168 61.5439 16.0039C61.4209 15.8262 61.3594 15.6143 61.3594 15.3682C61.3594 15.1494 61.4004 14.8896 61.4824 14.5889C61.5645 14.2881 61.6875 14.0078 61.8516 13.748C62.0156 13.4746 62.2139 13.2422 62.4463 13.0508C62.6787 12.8594 62.9453 12.7637 63.2461 12.7637C63.5332 12.7637 63.7793 12.873 63.9844 13.0918C64.1895 13.3105 64.292 13.5498 64.292 13.8096ZM60.457 18.3623C60.2793 18.7178 60.0264 19.1895 59.6982 19.7773C59.3838 20.3516 59.042 20.9873 58.6729 21.6846C58.3037 22.3682 57.9277 23.0928 57.5449 23.8584C57.1621 24.6104 56.8135 25.3486 56.499 26.0732C56.1982 26.7842 55.9521 27.4541 55.7607 28.083C55.5693 28.7119 55.4736 29.2451 55.4736 29.6826C55.4736 30.0791 55.5557 30.3525 55.7197 30.5029C55.8838 30.6396 56.1162 30.708 56.417 30.708C56.9775 30.708 57.5244 30.5234 58.0576 30.1543C58.5908 29.7852 59.1172 29.3066 59.6367 28.7188C60.1699 28.1172 60.6895 27.4336 61.1953 26.668C61.7012 25.9023 62.207 25.1299 62.7129 24.3506L63.4512 24.9248C63.0547 25.6357 62.6035 26.3945 62.0977 27.2012C61.6055 28.0078 61.0518 28.7598 60.4365 29.457C59.8213 30.1406 59.1445 30.708 58.4062 31.1592C57.668 31.6104 56.8613 31.8359 55.9863 31.8359C55.166 31.8359 54.5371 31.5898 54.0996 31.0977C53.6621 30.6055 53.4434 29.9697 53.4434 29.1904C53.4434 28.2744 53.6553 27.3174 54.0791 26.3193C54.5029 25.3213 55.0293 24.3369 55.6582 23.3662C56.3008 22.3818 56.9912 21.4385 57.7295 20.5361C58.4814 19.6338 59.1719 18.8135 59.8008 18.0752L60.457 18.3623ZM77.5605 2.16113C78.0391 2.16113 78.4355 2.27734 78.75 2.50977C79.0781 2.74219 79.2422 3.16602 79.2422 3.78125C79.2422 4.20508 79.1533 4.71094 78.9756 5.29883C78.8115 5.88672 78.5791 6.5293 78.2783 7.22656C77.9912 7.91016 77.6494 8.63477 77.2529 9.40039C76.8564 10.1523 76.4258 10.9043 75.9609 11.6562C75.5098 12.4082 75.0312 13.1396 74.5254 13.8506C74.0332 14.5615 73.541 15.2178 73.0488 15.8193C72.0645 17.0361 71.21 18.0615 70.4854 18.8955C69.7744 19.7295 69.1592 20.4404 68.6396 21.0283C68.1201 21.6025 67.6826 22.0742 67.3271 22.4434C66.9717 22.7988 66.6572 23.1064 66.3838 23.3662C66.1104 23.626 65.8574 23.8652 65.625 24.084C65.3926 24.2891 65.1533 24.5215 64.9072 24.7812C64.7979 25.3008 64.7432 25.7998 64.7432 26.2783C64.7568 26.7432 64.7637 27.1738 64.7637 27.5703C64.7637 28.7598 64.9551 29.6416 65.3379 30.2158C65.7207 30.79 66.2607 31.0771 66.958 31.0771C67.4229 31.0771 67.8877 30.9609 68.3525 30.7285C68.8311 30.4824 69.3027 30.168 69.7676 29.7852C70.2324 29.4023 70.6836 28.9717 71.1211 28.4932C71.5586 28.001 71.9688 27.5088 72.3516 27.0166C72.748 26.5107 73.1035 26.0254 73.418 25.5605C73.7324 25.0957 74.0059 24.6924 74.2383 24.3506L74.9971 24.9248C74.9561 24.9795 74.8193 25.1982 74.5869 25.5811C74.3682 25.9502 74.0742 26.4014 73.7051 26.9346C73.3359 27.4678 72.8984 28.042 72.3926 28.6572C71.8867 29.2588 71.3398 29.8193 70.752 30.3389C70.1641 30.8584 69.542 31.2891 68.8857 31.6309C68.2432 31.9727 67.5869 32.1436 66.917 32.1436C66.3564 32.1436 65.8164 32.041 65.2969 31.8359C64.791 31.6172 64.3398 31.2822 63.9434 30.8311C63.5605 30.3662 63.2461 29.7783 63 29.0674C62.7676 28.3564 62.6514 27.502 62.6514 26.5039C62.6514 25.2598 62.7949 23.9609 63.082 22.6074C63.3828 21.2402 63.7861 19.873 64.292 18.5059C64.7979 17.125 65.3926 15.7646 66.0762 14.4248C66.7598 13.085 67.4844 11.8135 68.25 10.6104C69.0293 9.39355 69.8359 8.27246 70.6699 7.24707C71.5176 6.20801 72.3447 5.3125 73.1514 4.56055C73.9717 3.80859 74.7578 3.2207 75.5098 2.79688C76.2617 2.37305 76.9453 2.16113 77.5605 2.16113ZM65.2764 22.9561C66.4385 21.7529 67.5596 20.5361 68.6396 19.3057C69.7334 18.0615 70.752 16.8379 71.6953 15.6348C72.6523 14.418 73.5273 13.2422 74.3203 12.1074C75.1133 10.959 75.79 9.87891 76.3506 8.86719C76.9111 7.85547 77.3486 6.93262 77.6631 6.09863C77.9775 5.26465 78.1348 4.54687 78.1348 3.94531C78.1348 3.83594 78.0801 3.69238 77.9707 3.51465C77.8613 3.32324 77.7314 3.22754 77.5811 3.22754C77.1572 3.22754 76.5967 3.50781 75.8994 4.06836C75.2021 4.62891 74.4434 5.39453 73.623 6.36523C72.8164 7.32227 71.9756 8.44336 71.1006 9.72852C70.2393 11.0137 69.4258 12.3877 68.6602 13.8506C67.8945 15.3135 67.2109 16.8242 66.6094 18.3828C66.0078 19.9414 65.5635 21.4658 65.2764 22.9561ZM83.4463 13.8096C83.4463 14.083 83.3779 14.3701 83.2412 14.6709C83.1045 14.958 82.9268 15.2178 82.708 15.4502C82.5029 15.6826 82.2705 15.874 82.0107 16.0244C81.751 16.1748 81.4912 16.25 81.2314 16.25C80.999 16.25 80.8213 16.168 80.6982 16.0039C80.5752 15.8262 80.5137 15.6143 80.5137 15.3682C80.5137 15.1494 80.5547 14.8896 80.6367 14.5889C80.7188 14.2881 80.8418 14.0078 81.0059 13.748C81.1699 13.4746 81.3682 13.2422 81.6006 13.0508C81.833 12.8594 82.0996 12.7637 82.4004 12.7637C82.6875 12.7637 82.9336 12.873 83.1387 13.0918C83.3438 13.3105 83.4463 13.5498 83.4463 13.8096ZM79.6113 18.3623C79.4336 18.7178 79.1807 19.1895 78.8525 19.7773C78.5381 20.3516 78.1963 20.9873 77.8271 21.6846C77.458 22.3682 77.082 23.0928 76.6992 23.8584C76.3164 24.6104 75.9678 25.3486 75.6533 26.0732C75.3525 26.7842 75.1064 27.4541 74.915 28.083C74.7236 28.7119 74.6279 29.2451 74.6279 29.6826C74.6279 30.0791 74.71 30.3525 74.874 30.5029C75.0381 30.6396 75.2705 30.708 75.5713 30.708C76.1318 30.708 76.6787 30.5234 77.2119 30.1543C77.7451 29.7852 78.2715 29.3066 78.791 28.7188C79.3242 28.1172 79.8438 27.4336 80.3496 26.668C80.8555 25.9023 81.3613 25.1299 81.8672 24.3506L82.6055 24.9248C82.209 25.6357 81.7578 26.3945 81.252 27.2012C80.7598 28.0078 80.2061 28.7598 79.5908 29.457C78.9756 30.1406 78.2988 30.708 77.5605 31.1592C76.8223 31.6104 76.0156 31.8359 75.1406 31.8359C74.3203 31.8359 73.6914 31.5898 73.2539 31.0977C72.8164 30.6055 72.5977 29.9697 72.5977 29.1904C72.5977 28.2744 72.8096 27.3174 73.2334 26.3193C73.6572 25.3213 74.1836 24.3369 74.8125 23.3662C75.4551 22.3818 76.1455 21.4385 76.8838 20.5361C77.6357 19.6338 78.3262 18.8135 78.9551 18.0752L79.6113 18.3623ZM89.0244 14.1172L84.3691 23.4688C85.1895 22.416 86.0508 21.4385 86.9531 20.5361C87.8555 19.6201 88.7783 18.875 89.7217 18.3008C90.4189 17.8906 91.0342 17.6104 91.5674 17.46C92.1006 17.2959 92.6064 17.2139 93.085 17.2139C93.5498 17.2139 93.9326 17.2891 94.2334 17.4395C94.5342 17.5898 94.7734 17.7881 94.9512 18.0342C95.1289 18.2803 95.252 18.5537 95.3203 18.8545C95.3887 19.1416 95.4229 19.4287 95.4229 19.7158C95.4229 20.3584 95.3135 20.9941 95.0947 21.623C94.876 22.252 94.6025 22.874 94.2744 23.4893C93.96 24.1045 93.6113 24.7129 93.2285 25.3145C92.8457 25.9023 92.4902 26.4834 92.1621 27.0576C91.8477 27.6182 91.5811 28.1719 91.3623 28.7188C91.1436 29.2656 91.0342 29.792 91.0342 30.2979C91.0342 30.5439 91.0615 30.749 91.1162 30.9131C91.1846 31.0635 91.2666 31.1865 91.3623 31.2822C91.4717 31.3643 91.5879 31.4189 91.7109 31.4463C91.834 31.4736 91.957 31.4873 92.0801 31.4873C92.3398 31.4873 92.6406 31.3711 92.9824 31.1387C93.3379 30.8926 93.7139 30.5781 94.1104 30.1953C94.5068 29.7988 94.9102 29.3545 95.3203 28.8623C95.7441 28.3564 96.1475 27.8438 96.5303 27.3242C96.9268 26.791 97.2959 26.2715 97.6377 25.7656C97.9795 25.2461 98.2803 24.7744 98.54 24.3506L99.2988 24.9248C99.1484 25.2256 98.9229 25.6221 98.6221 26.1143C98.335 26.6064 97.9932 27.1396 97.5967 27.7139C97.2002 28.2744 96.7627 28.8418 96.2842 29.416C95.8193 29.9766 95.3271 30.4893 94.8076 30.9541C94.2881 31.4189 93.7549 31.7949 93.208 32.082C92.6748 32.3828 92.1484 32.5332 91.6289 32.5332C91.2734 32.5332 90.9316 32.4785 90.6035 32.3691C90.2754 32.2598 89.9883 32.0957 89.7422 31.877C89.4961 31.6445 89.2979 31.3506 89.1475 30.9951C88.9971 30.6396 88.9219 30.2158 88.9219 29.7236C88.9219 29.1357 89.0381 28.459 89.2705 27.6934C89.5166 26.9277 89.9814 26.0527 90.665 25.0684C91.2256 24.2617 91.7109 23.5918 92.1211 23.0586C92.5312 22.5117 92.8662 22.04 93.126 21.6436C93.3994 21.2334 93.5977 20.8643 93.7207 20.5361C93.8438 20.1943 93.9053 19.8184 93.9053 19.4082C93.9053 19.0527 93.8027 18.7793 93.5977 18.5879C93.3926 18.3965 93.1602 18.3008 92.9004 18.3008C92.2031 18.3008 91.4854 18.499 90.7471 18.8955C90.0088 19.292 89.2773 19.8184 88.5527 20.4746C87.8281 21.1172 87.1172 21.8555 86.4199 22.6895C85.7227 23.5234 85.0596 24.3779 84.4307 25.2529C83.8154 26.1143 83.2412 26.9619 82.708 27.7959C82.1885 28.6299 81.7373 29.3818 81.3545 30.0518C80.9717 30.708 80.6777 31.2412 80.4727 31.6514C80.2539 32.0479 80.1377 32.2529 80.124 32.2666C79.5498 33.4424 78.9893 34.5771 78.4424 35.6709C77.8955 36.7783 77.3828 37.8242 76.9043 38.8086C76.4121 39.793 75.9609 40.6885 75.5508 41.4951C75.1406 42.3154 74.7852 43.0264 74.4844 43.6279C74.1836 44.2295 73.9512 44.7012 73.7871 45.043C73.6094 45.3848 73.5137 45.5625 73.5 45.5762L71.2646 44.3047C72.3857 42.1855 73.3975 40.2715 74.2998 38.5625C75.2021 36.8535 76.0635 35.2402 76.8838 33.7227C77.7041 32.2188 78.5107 30.7559 79.3037 29.334C80.0967 27.9121 80.9375 26.4287 81.8262 24.8838C82.7148 23.3252 83.6787 21.6572 84.7178 19.8799C85.7705 18.0889 86.9668 16.0723 88.3066 13.8301L89.0244 14.1172ZM105.718 14.1172L101.062 23.4688C101.883 22.416 102.744 21.4385 103.646 20.5361C104.549 19.6201 105.472 18.875 106.415 18.3008C107.112 17.8906 107.728 17.6104 108.261 17.46C108.794 17.2959 109.3 17.2139 109.778 17.2139C110.243 17.2139 110.626 17.2891 110.927 17.4395C111.228 17.5898 111.467 17.7881 111.645 18.0342C111.822 18.2803 111.945 18.5537 112.014 18.8545C112.082 19.1416 112.116 19.4287 112.116 19.7158C112.116 20.3584 112.007 20.9941 111.788 21.623C111.569 22.252 111.296 22.874 110.968 23.4893C110.653 24.1045 110.305 24.7129 109.922 25.3145C109.539 25.9023 109.184 26.4834 108.855 27.0576C108.541 27.6182 108.274 28.1719 108.056 28.7188C107.837 29.2656 107.728 29.792 107.728 30.2979C107.728 30.5439 107.755 30.749 107.81 30.9131C107.878 31.0635 107.96 31.1865 108.056 31.2822C108.165 31.3643 108.281 31.4189 108.404 31.4463C108.527 31.4736 108.65 31.4873 108.773 31.4873C109.033 31.4873 109.334 31.3711 109.676 31.1387C110.031 30.8926 110.407 30.5781 110.804 30.1953C111.2 29.7988 111.604 29.3545 112.014 28.8623C112.438 28.3564 112.841 27.8438 113.224 27.3242C113.62 26.791 113.989 26.2715 114.331 25.7656C114.673 25.2461 114.974 24.7744 115.233 24.3506L115.992 24.9248C115.842 25.2256 115.616 25.6221 115.315 26.1143C115.028 26.6064 114.687 27.1396 114.29 27.7139C113.894 28.2744 113.456 28.8418 112.978 29.416C112.513 29.9766 112.021 30.4893 111.501 30.9541C110.981 31.4189 110.448 31.7949 109.901 32.082C109.368 32.3828 108.842 32.5332 108.322 32.5332C107.967 32.5332 107.625 32.4785 107.297 32.3691C106.969 32.2598 106.682 32.0957 106.436 31.877C106.189 31.6445 105.991 31.3506 105.841 30.9951C105.69 30.6396 105.615 30.2158 105.615 29.7236C105.615 29.1357 105.731 28.459 105.964 27.6934C106.21 26.9277 106.675 26.0527 107.358 25.0684C107.919 24.2617 108.404 23.5918 108.814 23.0586C109.225 22.5117 109.56 22.04 109.819 21.6436C110.093 21.2334 110.291 20.8643 110.414 20.5361C110.537 20.1943 110.599 19.8184 110.599 19.4082C110.599 19.0527 110.496 18.7793 110.291 18.5879C110.086 18.3965 109.854 18.3008 109.594 18.3008C108.896 18.3008 108.179 18.499 107.44 18.8955C106.702 19.292 105.971 19.8184 105.246 20.4746C104.521 21.1172 103.811 21.8555 103.113 22.6895C102.416 23.5234 101.753 24.3779 101.124 25.2529C100.509 26.1143 99.9346 26.9619 99.4014 27.7959C98.8818 28.6299 98.4307 29.3818 98.0479 30.0518C97.665 30.708 97.3711 31.2412 97.166 31.6514C96.9473 32.0479 96.8311 32.2529 96.8174 32.2666C96.2432 33.4424 95.6826 34.5771 95.1357 35.6709C94.5889 36.7783 94.0762 37.8242 93.5977 38.8086C93.1055 39.793 92.6543 40.6885 92.2441 41.4951C91.834 42.3154 91.4785 43.0264 91.1777 43.6279C90.877 44.2295 90.6445 44.7012 90.4805 45.043C90.3027 45.3848 90.207 45.5625 90.1934 45.5762L87.958 44.3047C89.0791 42.1855 90.0908 40.2715 90.9932 38.5625C91.8955 36.8535 92.7568 35.2402 93.5771 33.7227C94.3975 32.2188 95.2041 30.7559 95.9971 29.334C96.79 27.9121 97.6309 26.4287 98.5195 24.8838C99.4082 23.3252 100.372 21.6572 101.411 19.8799C102.464 18.0889 103.66 16.0723 105 13.8301L105.718 14.1172ZM116.812 27.3242C116.785 27.4883 116.765 27.6523 116.751 27.8164C116.737 27.9805 116.73 28.1445 116.73 28.3086C116.73 28.8008 116.799 29.2725 116.936 29.7236C117.086 30.1611 117.298 30.5508 117.571 30.8926C117.858 31.2207 118.207 31.4805 118.617 31.6719C119.041 31.8633 119.52 31.959 120.053 31.959C121.844 31.959 123.573 31.3506 125.241 30.1338C126.909 28.917 128.57 26.9893 130.225 24.3506L130.922 24.9658C130.02 26.4697 129.104 27.7412 128.174 28.7803C127.244 29.8057 126.314 30.6396 125.385 31.2822C124.469 31.9248 123.566 32.3896 122.678 32.6768C121.789 32.9639 120.941 33.1074 120.135 33.1074C119.547 33.1074 118.925 33.0254 118.269 32.8613C117.612 32.6973 117.004 32.4238 116.443 32.041C115.896 31.6582 115.445 31.1455 115.09 30.5029C114.721 29.8604 114.536 29.0605 114.536 28.1035C114.536 27.0781 114.714 26.0938 115.069 25.1504C115.411 24.1934 115.862 23.3047 116.423 22.4844C116.983 21.6641 117.626 20.9189 118.351 20.249C119.075 19.5654 119.807 18.9844 120.545 18.5059C121.297 18.0273 122.028 17.6582 122.739 17.3984C123.45 17.125 124.079 16.9883 124.626 16.9883C124.981 16.9883 125.344 17.043 125.713 17.1523C126.082 17.2617 126.41 17.4326 126.697 17.665C126.998 17.8975 127.237 18.2051 127.415 18.5879C127.606 18.9707 127.702 19.4287 127.702 19.9619C127.702 20.6865 127.531 21.3701 127.189 22.0127C126.861 22.6416 126.417 23.2295 125.856 23.7764C125.296 24.3096 124.646 24.7949 123.908 25.2324C123.17 25.6562 122.397 26.0186 121.591 26.3193C120.784 26.6201 119.971 26.8594 119.15 27.0371C118.33 27.2148 117.551 27.3105 116.812 27.3242ZM116.977 26.4424C117.893 26.3467 118.754 26.1553 119.561 25.8682C120.367 25.5811 121.105 25.2324 121.775 24.8223C122.445 24.3984 123.04 23.9404 123.56 23.4482C124.093 22.9561 124.537 22.457 124.893 21.9512C125.248 21.4453 125.521 20.96 125.713 20.4951C125.904 20.0303 126 19.6133 126 19.2441C126 18.875 125.897 18.5811 125.692 18.3623C125.501 18.1436 125.269 18.0342 124.995 18.0342C124.394 18.0342 123.717 18.2529 122.965 18.6904C122.213 19.1143 121.461 19.709 120.709 20.4746C119.957 21.2266 119.246 22.1152 118.576 23.1406C117.92 24.166 117.387 25.2666 116.977 26.4424ZM165.765 34.6455C164.876 34.6455 163.974 34.5635 163.058 34.3994C162.155 34.249 161.239 34.0439 160.31 33.7842C159.38 33.5381 158.45 33.2646 157.521 32.9639C156.591 32.6631 155.675 32.3691 154.772 32.082C153.692 32.7383 152.564 33.251 151.389 33.6201C150.213 34.0029 148.976 34.1943 147.677 34.1943C146.569 34.1943 145.722 33.9961 145.134 33.5996C144.546 33.2031 144.252 32.6768 144.252 32.0205C144.252 31.1592 144.73 30.4961 145.688 30.0312C146.645 29.5664 148.094 29.334 150.035 29.334C150.883 29.334 151.737 29.3955 152.599 29.5186C153.46 29.6416 154.335 29.7988 155.224 29.9902C156.085 29.2383 156.905 28.3906 157.685 27.4473C158.464 26.5039 159.223 25.4922 159.961 24.4121C159.4 24.4805 158.833 24.5352 158.259 24.5762C157.685 24.6035 157.104 24.6172 156.516 24.6172C154.369 24.6172 152.455 24.3643 150.773 23.8584C149.092 23.3389 147.67 22.6348 146.508 21.7461C145.346 20.8438 144.457 19.791 143.842 18.5879C143.24 17.3711 142.939 16.0654 142.939 14.6709C142.939 13.0303 143.254 11.5742 143.883 10.3027C144.512 9.03125 145.373 7.96484 146.467 7.10352C147.574 6.22852 148.873 5.56543 150.363 5.11426C151.854 4.64941 153.453 4.41699 155.162 4.41699C156.242 4.41699 157.227 4.49902 158.115 4.66309C159.004 4.82715 159.77 5.00488 160.412 5.19629C161.068 5.3877 161.581 5.57227 161.95 5.75C162.319 5.92773 162.524 6.02344 162.565 6.03711L162.032 6.95996C162.019 6.95996 161.848 6.88477 161.52 6.73438C161.191 6.57031 160.74 6.39941 160.166 6.22168C159.592 6.04395 158.908 5.87988 158.115 5.72949C157.322 5.5791 156.468 5.50391 155.552 5.50391C153.938 5.50391 152.489 5.74316 151.204 6.22168C149.933 6.68652 148.853 7.3291 147.964 8.14941C147.089 8.96973 146.412 9.93359 145.934 11.041C145.469 12.1348 145.236 13.3037 145.236 14.5479C145.236 15.9424 145.558 17.1934 146.2 18.3008C146.843 19.3945 147.704 20.3242 148.784 21.0898C149.864 21.8418 151.115 22.416 152.537 22.8125C153.973 23.209 155.477 23.4072 157.049 23.4072C157.691 23.4072 158.32 23.3867 158.936 23.3457C159.564 23.3047 160.187 23.2363 160.802 23.1406C161.772 21.623 162.709 20.0508 163.611 18.4238C164.527 16.7969 165.437 15.2041 166.339 13.6455C167.241 12.0869 168.15 10.6104 169.066 9.21582C169.982 7.80762 170.933 6.57715 171.917 5.52441C172.915 4.47168 173.961 3.6377 175.055 3.02246C176.148 2.39355 177.324 2.0791 178.582 2.0791C179.074 2.0791 179.532 2.16113 179.956 2.3252C180.38 2.47559 180.749 2.71484 181.063 3.04297C181.378 3.35742 181.624 3.76074 181.802 4.25293C181.979 4.74512 182.068 5.31934 182.068 5.97559C182.068 7.04199 181.863 8.16992 181.453 9.35938C181.043 10.5352 180.448 11.7178 179.669 12.9072C178.89 14.083 177.939 15.2451 176.818 16.3936C175.697 17.5283 174.426 18.5811 173.004 19.5518C171.582 20.5225 170.023 21.3906 168.328 22.1562C166.633 22.9082 164.828 23.4961 162.914 23.9199C162.012 25.1641 161.082 26.3398 160.125 27.4473C159.168 28.541 158.156 29.5322 157.09 30.4209C158.129 30.6943 159.147 30.9883 160.146 31.3027C161.144 31.6035 162.087 31.877 162.976 32.123C163.878 32.3828 164.712 32.5947 165.478 32.7588C166.243 32.9365 166.92 33.0254 167.508 33.0254C168.383 33.0254 169.224 32.875 170.03 32.5742C170.851 32.2734 171.664 31.7402 172.471 30.9746L173.312 31.6309C173.298 31.6445 173.223 31.7334 173.086 31.8975C172.949 32.0479 172.744 32.2324 172.471 32.4512C172.197 32.6836 171.855 32.9229 171.445 33.1689C171.035 33.4287 170.55 33.668 169.989 33.8867C169.442 34.1055 168.813 34.2832 168.103 34.4199C167.405 34.5703 166.626 34.6455 165.765 34.6455ZM178.664 3.20703C177.898 3.20703 177.14 3.48047 176.388 4.02734C175.636 4.57422 174.877 5.31934 174.111 6.2627C173.346 7.19238 172.566 8.29297 171.773 9.56445C170.994 10.8223 170.188 12.1689 169.354 13.6045C168.52 15.0264 167.651 16.4961 166.749 18.0137C165.847 19.5312 164.903 21.0215 163.919 22.4844C165.56 22.0332 167.118 21.4453 168.595 20.7207C170.085 19.9961 171.459 19.1826 172.717 18.2803C173.988 17.3779 175.13 16.4141 176.142 15.3887C177.167 14.3496 178.035 13.29 178.746 12.21C179.471 11.1299 180.024 10.0635 180.407 9.01074C180.79 7.94434 180.981 6.92578 180.981 5.95508C180.981 5.44922 180.92 5.02539 180.797 4.68359C180.674 4.32813 180.503 4.04102 180.284 3.82227C180.079 3.60352 179.833 3.44629 179.546 3.35059C179.272 3.25488 178.979 3.20703 178.664 3.20703ZM147.554 33.1279C148.565 33.1279 149.522 32.9844 150.425 32.6973C151.327 32.4238 152.202 32.041 153.05 31.5488C152.147 31.2891 151.272 31.0771 150.425 30.9131C149.591 30.749 148.784 30.667 148.005 30.667C147.075 30.667 146.392 30.8037 145.954 31.0771C145.53 31.3506 145.318 31.665 145.318 32.0205C145.318 32.1299 145.346 32.2461 145.4 32.3691C145.469 32.5059 145.585 32.6289 145.749 32.7383C145.913 32.8477 146.139 32.9365 146.426 33.0049C146.713 33.0869 147.089 33.1279 147.554 33.1279ZM185.883 27.5293C185.254 28.2676 184.632 28.9512 184.017 29.5801C183.401 30.1953 182.786 30.7285 182.171 31.1797C181.569 31.6172 180.968 31.959 180.366 32.2051C179.765 32.4648 179.156 32.5947 178.541 32.5947C178.021 32.5947 177.55 32.499 177.126 32.3076C176.716 32.1299 176.36 31.877 176.06 31.5488C175.745 31.207 175.506 30.7969 175.342 30.3184C175.178 29.8262 175.096 29.2793 175.096 28.6777C175.096 27.7344 175.308 26.7637 175.731 25.7656C176.142 24.7676 176.661 23.7969 177.29 22.8535C177.933 21.9102 178.637 21.0146 179.402 20.167C180.182 19.3193 180.92 18.5674 181.617 17.9111L182.499 18.5264C182.007 19.251 181.453 20.0713 180.838 20.9873C180.236 21.9033 179.662 22.8535 179.115 23.8379C178.582 24.8086 178.131 25.7861 177.762 26.7705C177.393 27.7412 177.208 28.6436 177.208 29.4775C177.208 30.0381 177.311 30.5166 177.516 30.9131C177.734 31.3096 178.145 31.5078 178.746 31.5078C179.402 31.5078 180.12 31.248 180.899 30.7285C181.692 30.209 182.499 29.5322 183.319 28.6982C184.153 27.8643 184.98 26.9277 185.801 25.8887C186.635 24.8359 187.421 23.7764 188.159 22.71C188.897 21.6436 189.567 20.625 190.169 19.6543C190.784 18.6836 191.283 17.8564 191.666 17.1729L193.163 17.9111C192.37 19.4697 191.604 20.9258 190.866 22.2793C190.142 23.6191 189.492 24.8291 188.918 25.9092C188.357 26.9756 187.906 27.9053 187.564 28.6982C187.236 29.4912 187.072 30.1201 187.072 30.585C187.072 30.7764 187.113 30.9336 187.195 31.0566C187.277 31.1797 187.407 31.2412 187.585 31.2412C188.091 31.2549 188.645 31.0361 189.246 30.585C189.861 30.1338 190.477 29.5664 191.092 28.8828C191.721 28.1992 192.329 27.4541 192.917 26.6475C193.519 25.8271 194.059 25.0615 194.537 24.3506L195.275 24.9248C195.193 25.0615 195.022 25.3418 194.763 25.7656C194.503 26.1895 194.182 26.6748 193.799 27.2217C193.416 27.7686 192.979 28.3428 192.486 28.9443C191.994 29.5459 191.475 30.0996 190.928 30.6055C190.381 31.0977 189.813 31.5078 189.226 31.8359C188.638 32.1504 188.057 32.3076 187.482 32.3076C187.127 32.3076 186.806 32.2461 186.519 32.123C186.245 32 186.013 31.8359 185.821 31.6309C185.63 31.4258 185.479 31.1865 185.37 30.9131C185.261 30.6396 185.206 30.3525 185.206 30.0518C185.206 29.6963 185.261 29.3066 185.37 28.8828C185.493 28.459 185.664 28.0078 185.883 27.5293ZM202.351 31.3027C201.64 31.7812 200.901 32.1641 200.136 32.4512C199.384 32.752 198.659 32.9023 197.962 32.9023C197.442 32.9023 196.923 32.8271 196.403 32.6768C195.884 32.5264 195.412 32.2803 194.988 31.9385C194.564 31.583 194.223 31.1182 193.963 30.5439C193.689 29.9697 193.553 29.2588 193.553 28.4111C193.553 27.3857 193.737 26.4014 194.106 25.458C194.476 24.5146 194.968 23.6396 195.583 22.833C196.198 22.0127 196.902 21.2676 197.695 20.5977C198.488 19.9277 199.302 19.3604 200.136 18.8955C200.983 18.417 201.824 18.0479 202.658 17.7881C203.492 17.5283 204.251 17.3984 204.935 17.3984C205.604 17.3984 206.172 17.4736 206.637 17.624C207.115 17.7607 207.519 17.9385 207.847 18.1572C208.175 18.3623 208.435 18.5879 208.626 18.834C208.817 19.0801 208.975 19.3125 209.098 19.5312L210.205 18.0752L210.882 18.5264C210.882 18.54 210.772 18.7588 210.554 19.1826C210.335 19.5928 210.048 20.1465 209.692 20.8438C209.337 21.541 208.92 22.3613 208.441 23.3047C207.977 24.2344 207.484 25.2256 206.965 26.2783C206.459 27.3311 205.939 28.418 205.406 29.5391C204.887 30.6602 204.388 31.7607 203.909 32.8408C205.153 32.1299 206.247 31.4463 207.19 30.79C208.134 30.1338 208.975 29.4707 209.713 28.8008C210.465 28.1309 211.142 27.4336 211.743 26.709C212.345 25.9844 212.926 25.1982 213.486 24.3506L214.245 24.9248C213.698 25.8135 213.104 26.6406 212.461 27.4062C211.832 28.1582 211.087 28.9102 210.226 29.6621C209.378 30.4004 208.38 31.166 207.231 31.959C206.097 32.7383 204.743 33.5996 203.171 34.543C201.872 37.7285 200.621 40.3604 199.418 42.4385C198.215 44.5303 197.073 46.1846 195.993 47.4014C194.927 48.6182 193.936 49.4727 193.02 49.9648C192.09 50.457 191.256 50.7031 190.518 50.7031C190.217 50.7031 189.896 50.6621 189.554 50.5801C189.198 50.5117 188.87 50.3682 188.569 50.1494C188.269 49.9307 188.022 49.6299 187.831 49.2471C187.626 48.8643 187.523 48.3721 187.523 47.7705C187.523 46.6221 187.831 45.4873 188.446 44.3662C189.048 43.2451 189.93 42.1309 191.092 41.0234C192.24 39.916 193.648 38.8154 195.316 37.7217C196.998 36.6279 198.898 35.5273 201.018 34.4199C201.277 33.832 201.517 33.2715 201.735 32.7383C201.954 32.2188 202.159 31.7402 202.351 31.3027ZM203.417 29.0469C203.786 28.3496 204.148 27.666 204.504 26.9961C204.873 26.3125 205.249 25.6357 205.632 24.9658C206.028 24.2822 206.445 23.585 206.883 22.874C207.334 22.1631 207.833 21.4248 208.38 20.6592C208.353 20.4541 208.284 20.2422 208.175 20.0234C208.065 19.8047 207.915 19.6064 207.724 19.4287C207.532 19.2373 207.286 19.0801 206.985 18.957C206.685 18.834 206.329 18.7725 205.919 18.7725C205.454 18.7725 204.921 18.834 204.319 18.957C203.731 19.0801 203.109 19.292 202.453 19.5928C201.797 19.8936 201.127 20.2969 200.443 20.8027C199.773 21.3086 199.117 21.9443 198.475 22.71C197.531 23.8311 196.807 24.9521 196.301 26.0732C195.795 27.1807 195.542 28.1924 195.542 29.1084C195.542 29.9971 195.768 30.6738 196.219 31.1387C196.67 31.5898 197.285 31.8154 198.064 31.8154C198.885 31.8154 199.753 31.5625 200.669 31.0566C201.599 30.5508 202.515 29.8809 203.417 29.0469ZM190.518 49.6572C191.037 49.6572 191.577 49.4658 192.138 49.083C192.698 48.7002 193.266 48.1738 193.84 47.5039C194.414 46.8477 194.981 46.082 195.542 45.207C196.103 44.332 196.656 43.3955 197.203 42.3975C197.75 41.4131 198.27 40.4014 198.762 39.3623C199.268 38.3232 199.746 37.3047 200.197 36.3066C198.16 37.373 196.417 38.4805 194.968 39.6289C193.532 40.791 192.356 41.8984 191.44 42.9512C190.524 44.0039 189.861 44.9541 189.451 45.8018C189.027 46.6494 188.815 47.2988 188.815 47.75C188.815 48.3105 188.938 48.7686 189.185 49.124C189.431 49.4795 189.875 49.6572 190.518 49.6572ZM230.61 21.3564C230.61 21.9443 230.508 22.5459 230.303 23.1611C230.098 23.7627 229.838 24.3711 229.523 24.9863C229.209 25.5879 228.874 26.1826 228.519 26.7705C228.163 27.3584 227.828 27.9258 227.514 28.4727C227.199 29.0195 226.939 29.5459 226.734 30.0518C226.529 30.5439 226.427 30.9951 226.427 31.4053C226.427 31.7197 226.495 31.9316 226.632 32.041C226.769 32.1504 226.919 32.2051 227.083 32.2051C227.603 32.2051 228.184 31.9521 228.826 31.4463C229.469 30.9268 230.118 30.2773 230.774 29.498C231.444 28.7188 232.107 27.8711 232.764 26.9551C233.42 26.0391 234.015 25.1709 234.548 24.3506L235.286 24.9248C235.177 25.0889 234.979 25.417 234.691 25.9092C234.404 26.3877 234.049 26.9414 233.625 27.5703C233.201 28.1855 232.723 28.835 232.189 29.5186C231.67 30.1885 231.109 30.8105 230.508 31.3848C229.906 31.9453 229.284 32.4102 228.642 32.7793C228.013 33.1484 227.377 33.333 226.734 33.333C226.365 33.333 226.03 33.2715 225.729 33.1484C225.429 33.0254 225.169 32.8545 224.95 32.6357C224.745 32.417 224.581 32.1641 224.458 31.877C224.335 31.5762 224.273 31.2617 224.273 30.9336C224.273 30.4004 224.39 29.8262 224.622 29.2109C224.868 28.582 225.169 27.9395 225.524 27.2832C225.88 26.627 226.27 25.9707 226.693 25.3145C227.117 24.6445 227.507 24.0088 227.862 23.4072C228.218 22.8057 228.512 22.252 228.744 21.7461C228.99 21.2266 229.113 20.7822 229.113 20.4131C229.113 19.9893 228.997 19.6338 228.765 19.3467C228.546 19.0596 228.231 18.916 227.821 18.916C227.384 18.916 226.878 19.1006 226.304 19.4697C225.729 19.8252 225.087 20.3516 224.376 21.0488C223.665 21.7461 222.886 22.6074 222.038 23.6328C221.204 24.6445 220.295 25.7998 219.311 27.0986C218.75 27.8506 218.203 28.5752 217.67 29.2725C217.438 29.5732 217.205 29.8809 216.973 30.1953C216.74 30.5098 216.508 30.8242 216.275 31.1387C216.043 31.4395 215.824 31.7266 215.619 32C215.414 32.2871 215.229 32.5332 215.065 32.7383L213.261 32L215.66 28.6982C216.002 28.2334 216.351 27.7344 216.706 27.2012C217.062 26.668 217.41 26.1211 217.752 25.5605C218.107 24.9863 218.442 24.4121 218.757 23.8379C219.071 23.2637 219.365 22.7031 219.639 22.1562C220.035 21.3359 220.309 20.6592 220.459 20.126C220.609 19.5791 220.685 19.1416 220.685 18.8135C220.685 18.4443 220.616 18.2051 220.479 18.0957C220.343 17.9727 220.151 17.9111 219.905 17.9111C219.646 17.9111 219.345 18.0479 219.003 18.3213C218.675 18.5811 218.333 18.9229 217.978 19.3467C217.622 19.7568 217.26 20.2285 216.891 20.7617C216.535 21.2812 216.193 21.8008 215.865 22.3203C215.537 22.8398 215.229 23.332 214.942 23.7969C214.655 24.2617 214.416 24.6377 214.225 24.9248L213.486 24.3506C214.184 23.2568 214.812 22.2588 215.373 21.3564C215.947 20.4404 216.494 19.6543 217.014 18.998C217.547 18.3418 218.06 17.8359 218.552 17.4805C219.058 17.1113 219.591 16.9268 220.151 16.9268C220.452 16.9268 220.739 16.9883 221.013 17.1113C221.3 17.2344 221.546 17.4189 221.751 17.665C221.97 17.8975 222.141 18.1846 222.264 18.5264C222.387 18.8682 222.448 19.2646 222.448 19.7158C222.448 20.0713 222.407 20.4404 222.325 20.8232C222.927 20.2354 223.487 19.75 224.007 19.3672C224.526 18.9844 225.005 18.6836 225.442 18.4648C225.88 18.2324 226.283 18.0684 226.652 17.9727C227.021 17.877 227.356 17.8291 227.657 17.8291C227.917 17.8291 228.218 17.877 228.56 17.9727C228.901 18.0684 229.223 18.2461 229.523 18.5059C229.824 18.7656 230.077 19.1279 230.282 19.5928C230.501 20.0439 230.61 20.6318 230.61 21.3564ZM250.872 18.3623C250.694 18.7178 250.441 19.1826 250.113 19.7568C249.799 20.3311 249.457 20.9668 249.088 21.6641C248.719 22.3477 248.343 23.0654 247.96 23.8174C247.591 24.5693 247.249 25.3076 246.935 26.0322C246.634 26.7432 246.381 27.4199 246.176 28.0625C245.984 28.6914 245.889 29.2246 245.889 29.6621C245.889 30.0996 245.971 30.3867 246.135 30.5234C246.312 30.6465 246.538 30.708 246.812 30.708C247.208 30.708 247.611 30.5918 248.021 30.3594C248.445 30.127 248.855 29.8262 249.252 29.457C249.662 29.0879 250.059 28.6709 250.441 28.2061C250.824 27.7412 251.18 27.2764 251.508 26.8115C251.85 26.333 252.157 25.8818 252.431 25.458C252.704 25.0205 252.937 24.6514 253.128 24.3506L253.866 24.9248C253.634 25.3623 253.36 25.834 253.046 26.3398C252.731 26.8457 252.383 27.3584 252 27.8779C251.631 28.3838 251.228 28.876 250.79 29.3545C250.353 29.833 249.888 30.2568 249.396 30.626C248.917 30.9951 248.411 31.2891 247.878 31.5078C247.345 31.7266 246.798 31.8359 246.237 31.8359C245.417 31.8359 244.815 31.5898 244.433 31.0977C244.05 30.6055 243.858 29.9697 243.858 29.1904C243.858 29.1357 243.858 29.0195 243.858 28.8418C243.872 28.6504 243.893 28.5 243.92 28.3906C243.236 29.252 242.58 29.9629 241.951 30.5234C241.336 31.084 240.734 31.5283 240.146 31.8564C239.572 32.1846 239.012 32.4102 238.465 32.5332C237.932 32.6699 237.419 32.7383 236.927 32.7383C236.407 32.7383 235.915 32.6494 235.45 32.4717C234.999 32.3076 234.603 32.0615 234.261 31.7334C233.905 31.4053 233.632 31.002 233.44 30.5234C233.235 30.0449 233.133 29.4912 233.133 28.8623C233.133 28.083 233.311 27.1943 233.666 26.1963C234.008 25.1846 234.623 24.0977 235.512 22.9355C236.264 21.9375 237.043 21.0967 237.85 20.4131C238.67 19.7295 239.47 19.1826 240.249 18.7725C241.042 18.3486 241.794 18.0479 242.505 17.8701C243.216 17.6924 243.852 17.6035 244.412 17.6035C245.67 17.6035 246.62 17.8154 247.263 18.2393C247.905 18.6494 248.295 19.2852 248.432 20.1465C248.705 19.8047 248.992 19.4629 249.293 19.1211C249.594 18.7793 249.901 18.4307 250.216 18.0752L250.872 18.3623ZM244.576 26.1553C244.754 25.8682 244.973 25.5059 245.232 25.0684C245.492 24.6172 245.766 24.1592 246.053 23.6943C246.34 23.2158 246.62 22.7578 246.894 22.3203C247.167 21.8828 247.406 21.5137 247.611 21.2129C247.611 21.0898 247.591 20.8916 247.55 20.6182C247.522 20.3447 247.434 20.0713 247.283 19.7979C247.133 19.5107 246.894 19.2646 246.565 19.0596C246.237 18.8545 245.779 18.752 245.191 18.752C244.768 18.752 244.289 18.8203 243.756 18.957C243.236 19.0801 242.676 19.2988 242.074 19.6133C241.486 19.9141 240.878 20.3174 240.249 20.8232C239.62 21.3291 238.991 21.958 238.362 22.71C237.419 23.8447 236.688 24.9863 236.168 26.1348C235.662 27.2695 235.409 28.2949 235.409 29.2109C235.409 29.9902 235.587 30.5918 235.942 31.0156C236.298 31.4395 236.804 31.6514 237.46 31.6514C238.212 31.6514 238.916 31.4873 239.572 31.1592C240.229 30.8174 240.844 30.3799 241.418 29.8467C241.992 29.3135 242.539 28.7256 243.059 28.083C243.578 27.4268 244.084 26.7842 244.576 26.1553ZM264.715 19.5518C264.797 19.333 264.838 19.1006 264.838 18.8545C264.838 18.417 264.66 18.0752 264.305 17.8291C263.963 17.5693 263.416 17.4395 262.664 17.4395C262.049 17.4395 261.427 17.5762 260.798 17.8496C260.183 18.1094 259.588 18.4717 259.014 18.9365C258.439 19.4014 257.899 19.9551 257.394 20.5977C256.901 21.2402 256.471 21.9375 256.102 22.6895C255.746 23.4414 255.459 24.2412 255.24 25.0889C255.035 25.9229 254.933 26.7637 254.933 27.6113C254.933 28.2949 255.008 28.876 255.158 29.3545C255.309 29.833 255.521 30.2227 255.794 30.5234C256.067 30.8242 256.396 31.043 256.778 31.1797C257.161 31.3027 257.592 31.3643 258.07 31.3643C259.014 31.3643 259.93 31.1523 260.818 30.7285C261.707 30.3047 262.548 29.7578 263.341 29.0879C264.147 28.4043 264.886 27.6455 265.556 26.8115C266.239 25.9775 266.841 25.1572 267.36 24.3506L268.119 24.9248C267.381 26.1689 266.595 27.2627 265.761 28.2061C264.927 29.1357 264.072 29.915 263.197 30.5439C262.322 31.1729 261.434 31.6445 260.531 31.959C259.629 32.2734 258.747 32.4307 257.886 32.4307C257.202 32.4307 256.546 32.3281 255.917 32.123C255.302 31.918 254.755 31.6104 254.276 31.2002C253.812 30.7764 253.436 30.2363 253.148 29.5801C252.875 28.9238 252.738 28.1445 252.738 27.2422C252.738 26.1758 252.889 25.1709 253.189 24.2275C253.504 23.2705 253.914 22.3887 254.42 21.582C254.939 20.7754 255.534 20.0508 256.204 19.4082C256.874 18.752 257.571 18.1982 258.296 17.7471C259.034 17.2959 259.772 16.9541 260.511 16.7217C261.263 16.4756 261.967 16.3525 262.623 16.3525C263.293 16.3525 263.84 16.4482 264.264 16.6396C264.688 16.8174 265.022 17.0361 265.269 17.2959C265.515 17.5557 265.679 17.8291 265.761 18.1162C265.856 18.4033 265.904 18.6494 265.904 18.8545C265.904 19.1826 265.856 19.5312 265.761 19.9004C265.665 20.2695 265.528 20.6113 265.351 20.9258C265.187 21.2266 264.975 21.4795 264.715 21.6846C264.469 21.8896 264.195 21.9922 263.895 21.9922C263.594 21.9922 263.334 21.8965 263.115 21.7051C262.896 21.5 262.787 21.2471 262.787 20.9463C262.787 20.9326 262.794 20.8506 262.808 20.7002C262.835 20.5498 262.903 20.3926 263.013 20.2285C263.122 20.0508 263.286 19.8936 263.505 19.7568C263.737 19.6201 264.059 19.5518 264.469 19.5518H264.715Z" fill="black"/>
</svg>
